<?xml version="1.0" standalone="no"?>
<!DOCTYPE svg PUBLIC "-//W3C//DTD SVG 20010904//EN"
 "http://www.w3.org/TR/2001/REC-SVG-20010904/DTD/svg10.dtd">
<svg version="1.0" xmlns="http://www.w3.org/2000/svg"
 width="1024.000000pt" height="1024.000000pt" viewBox="0 0 1024.000000 1024.000000"
 preserveAspectRatio="xMidYMid meet">
<metadata>
Created by potrace 1.14, written by Peter Selinger 2001-2017
</metadata>
<g transform="translate(0.000000,1024.000000) scale(0.100000,-0.100000)"
fill="#000000" stroke="none">
<path d="M875 6932 c-65 -22 -109 -55 -146 -105 -62 -86 -59 -5 -59 -1557 0
-1564 -4 -1474 63 -1562 18 -24 56 -56 84 -73 47 -27 52 -34 58 -75 17 -111
92 -208 190 -246 49 -19 133 -19 4150 -19 4017 0 4101 0 4150 19 65 25 137 94
166 159 24 52 24 54 27 493 l3 441 -62 6 c-34 4 -79 12 -100 19 l-39 11 0 132
0 133 -57 7 c-140 17 -285 89 -297 146 -11 58 -6 190 10 253 56 219 254 389
479 412 l66 7 -3 441 c-3 436 -3 442 -26 491 -27 59 -82 119 -133 145 -32 17
-37 24 -42 69 -13 107 -72 192 -165 238 l-57 28 -4105 2 c-3877 2 -4108 1
-4155 -15z m2170 -1086 c87 -30 176 -80 213 -119 l24 -25 -72 -94 c-40 -51
-75 -93 -79 -93 -3 0 -31 17 -61 38 -80 53 -160 79 -263 85 -140 7 -209 -30
-209 -113 0 -69 49 -98 243 -145 213 -51 306 -90 378 -160 68 -66 86 -116 86
-235 0 -93 -2 -105 -32 -166 -55 -112 -144 -177 -292 -215 -83 -21 -315 -15
-406 10 -86 24 -193 80 -250 130 l-49 43 19 29 c28 44 125 174 129 174 2 0 26
-18 52 -40 95 -79 209 -120 334 -120 97 0 146 14 187 55 26 26 33 41 33 73 0
80 -51 111 -293 172 -181 46 -263 82 -330 148 -67 66 -90 131 -85 242 5 102
34 168 104 235 95 93 204 126 399 122 121 -3 151 -8 220 -31z m1297 -611 c131
-341 238 -621 238 -622 0 -2 -67 -3 -149 -3 l-149 0 -38 110 -38 110 -274 0
-273 0 -13 -32 c-7 -18 -25 -68 -40 -110 l-28 -78 -150 0 c-116 0 -149 3 -145
13 29 74 459 1189 466 1210 l11 27 172 -2 171 -3 239 -620z m1061 597 c81 -33
166 -114 202 -194 41 -89 47 -227 15 -323 -28 -84 -104 -170 -182 -205 -29
-13 -55 -25 -57 -27 -2 -1 57 -105 130 -232 74 -126 137 -227 141 -223 3 4
112 282 241 617 l235 610 173 0 172 0 239 -620 c131 -341 238 -621 238 -622 0
-2 -67 -3 -149 -3 l-149 0 -38 110 -38 110 -274 0 -273 0 -13 -32 c-7 -18 -25
-68 -40 -111 l-28 -77 -306 2 -306 3 -120 222 -121 222 -92 1 -93 0 0 -225 0
-225 -140 0 -140 0 0 625 0 626 358 -3 c347 -3 359 -4 415 -26z m1817 -370 c0
-429 3 -455 53 -531 36 -54 112 -91 200 -98 138 -10 240 43 288 149 23 53 24
57 27 466 l4 412 134 0 134 0 0 -422 c0 -458 -4 -497 -56 -600 -34 -66 -116
-149 -183 -183 -124 -62 -349 -85 -499 -50 -196 46 -326 178 -367 370 -12 55
-15 157 -15 478 l0 407 140 0 140 0 0 -398z"/>
<path d="M3920 5585 c-6 -16 -50 -136 -97 -265 -47 -129 -88 -241 -90 -247 -4
-10 39 -13 197 -13 187 0 201 1 196 18 -3 9 -48 134 -100 277 -90 247 -95 259
-106 230z"/>
<path d="M4910 5460 l0 -172 168 4 c182 3 211 11 254 69 59 78 34 193 -53 244
-30 17 -56 20 -201 23 l-168 4 0 -172z"/>
<path d="M6290 5585 c-6 -16 -50 -136 -97 -265 -47 -129 -88 -241 -90 -247 -4
-10 39 -13 197 -13 187 0 201 1 196 18 -3 9 -48 134 -100 277 -90 247 -95 259
-106 230z"/>
</g>
</svg>
